<?xml version="1.0" standalone="no"?>
<!DOCTYPE svg PUBLIC "-//W3C//DTD SVG 20010904//EN"
 "http://www.w3.org/TR/2001/REC-SVG-20010904/DTD/svg10.dtd">
<svg version="1.0" xmlns="http://www.w3.org/2000/svg"
 width="512.000000pt" height="512.000000pt" viewBox="0 0 512.000000 512.000000"
 preserveAspectRatio="xMidYMid meet">

<g transform="translate(0.000000,512.000000) scale(0.100000,-0.100000)"
fill="#000000" stroke="none">
<path d="M2347 5110 c-617 -56 -1155 -307 -1593 -744 -400 -401 -639 -874
-725 -1437 -29 -189 -31 -523 -5 -704 48 -332 145 -627 297 -901 307 -551 806
-972 1399 -1179 440 -153 936 -181 1400 -79 866 191 1582 839 1866 1689 184
550 174 1132 -27 1695 -47 132 -170 373 -256 505 -292 445 -706 784 -1195 981
-192 77 -384 127 -608 159 -132 19 -424 26 -553 15z m-738 -1540 c252 -18 397
-50 504 -115 32 -19 60 -35 63 -35 6 0 79 -66 116 -105 16 -16 40 -54 54 -84
23 -48 26 -67 27 -182 1 -89 -2 -132 -11 -141 -7 -7 -12 -18 -12 -25 0 -55
-267 -327 -424 -432 -58 -39 -107 -71 -110 -71 -2 0 -42 -17 -88 -38 -45 -21
-103 -45 -128 -52 -76 -23 -65 27 -121 -533 -12 -114 -14 -119 -38 -129 -14
-6 -35 -14 -46 -19 -61 -24 -139 -48 -146 -43 -4 2 -11 26 -14 52 -4 26 -10
70 -15 97 -5 28 -14 91 -20 140 -6 50 -15 115 -20 145 -10 58 -22 146 -40 295
-6 50 -15 117 -20 150 -5 33 -14 94 -20 135 -13 92 -66 475 -75 548 -4 30 -12
52 -19 52 -7 0 -40 -18 -75 -41 -34 -22 -69 -38 -76 -35 -7 2 -16 17 -19 33
-33 174 -46 246 -50 288 -2 28 -7 62 -11 76 -7 30 -19 27 215 49 304 29 432
33 619 20z m2091 0 c52 -6 131 -15 175 -21 211 -29 408 -138 494 -273 63 -100
36 -237 -83 -416 -51 -76 -172 -202 -237 -246 -47 -32 -63 35 132 -552 63
-192 93 -295 85 -298 -6 -2 -54 -5 -106 -7 l-95 -2 -32 62 c-17 34 -91 179
-164 323 -83 162 -138 260 -146 258 -7 -2 -42 -25 -77 -53 -72 -56 -71 -52
-86 -205 -6 -58 -15 -141 -21 -185 -5 -44 -12 -124 -16 -179 l-6 -98 -41 -18
c-81 -34 -166 -61 -176 -55 -5 3 -12 20 -14 38 -5 29 -46 335 -66 487 -5 36
-14 101 -20 145 -6 44 -15 109 -20 145 -4 36 -15 115 -24 175 -9 61 -21 146
-26 190 -15 114 -30 221 -41 284 -5 30 -9 69 -9 87 0 18 -4 36 -10 39 -5 3
-37 -12 -70 -35 -66 -43 -96 -50 -104 -22 -9 30 -54 295 -59 345 -6 60 -28 55
303 77 91 6 172 12 180 14 36 8 293 4 380 -4z m-1080 -596 c30 -147 30 -147
93 -140 28 3 65 6 82 8 l29 3 17 -125 c10 -69 22 -150 28 -180 10 -54 25 -166
35 -266 5 -49 3 -52 -37 -92 -132 -126 -355 -149 -540 -55 -69 34 -217 185
-217 220 0 6 -9 18 -20 26 -19 13 -19 15 -3 34 10 10 43 38 73 62 93 72 237
244 278 331 24 53 62 189 62 225 0 19 6 26 28 31 15 3 36 9 47 13 11 5 21 8
22 6 2 -1 12 -46 23 -101z m-1786 -596 c6 -20 35 -223 47 -323 6 -49 14 -115
18 -145 4 -30 16 -113 25 -185 9 -71 24 -171 32 -221 8 -50 14 -109 14 -130 0
-22 3 -56 7 -78 l6 -38 41 6 c37 6 105 26 251 72 136 44 248 123 291 205 12
25 54 349 54 424 0 48 22 125 36 125 6 0 19 10 30 21 10 12 44 34 75 49 l56
27 33 -64 c18 -35 64 -97 102 -139 208 -222 522 -312 822 -234 78 20 176 72
176 93 0 39 12 -23 34 -183 15 -102 31 -209 36 -239 6 -30 10 -69 10 -88 0
-19 6 -36 14 -39 7 -3 74 16 147 41 74 26 157 52 185 60 70 17 72 19 169 115
82 80 85 85 85 128 0 38 10 118 26 200 9 48 44 -10 98 -165 49 -142 63 -171
91 -189 21 -14 50 -15 227 -9 231 7 241 11 316 98 54 62 54 83 -2 239 -25 68
-55 159 -67 203 -12 44 -42 140 -66 213 -23 73 -43 140 -43 148 0 12 36 14
242 12 l243 -3 -3 -40 c-11 -149 -71 -393 -138 -561 -24 -62 -44 -115 -44
-119 0 -5 -62 -119 -93 -170 -54 -89 -159 -236 -225 -315 -335 -401 -837 -677
-1357 -745 -150 -19 -430 -19 -580 0 -530 70 -1028 347 -1380 769 -128 154
-274 407 -351 610 -62 161 -124 431 -124 539 l0 37 215 0 c164 0 216 -3 219
-12z"/>
<path d="M1620 3104 c-41 -9 -78 -19 -82 -22 -8 -8 -12 -471 -5 -479 8 -7 40
11 172 99 122 81 233 186 256 242 19 44 -7 103 -60 141 -38 27 -51 30 -124 32
-45 1 -116 -5 -157 -13z"/>
<path d="M3715 3125 c-38 -7 -86 -17 -105 -22 l-35 -9 -3 -237 c-2 -208 0
-237 13 -237 16 0 170 84 245 133 158 105 213 223 146 312 -50 65 -135 85
-261 60z"/>
</g>
</svg>
